<mxfile host="app.diagrams.net" agent="Mozilla/5.0 (Windows NT 10.0; Win64; x64) AppleWebKit/537.36 (KHTML, like Gecko) Chrome/131.0.0.0 Safari/537.36" version="24.7.16">
  <diagram name="Page-1" id="t5WV-oXMro6doO0H-t0e">
    <mxGraphModel dx="662" dy="938" grid="1" gridSize="10" guides="1" tooltips="1" connect="1" arrows="1" fold="1" page="1" pageScale="1" pageWidth="827" pageHeight="1169" math="0" shadow="0">
      <root>
        <mxCell id="0" />
        <mxCell id="1" parent="0" />
        <mxCell id="YEo3tqjkAiHQVEcUZivg-14" value="" style="rounded=1;whiteSpace=wrap;html=1;" vertex="1" parent="1">
          <mxGeometry x="290" y="240" width="190" height="340" as="geometry" />
        </mxCell>
        <mxCell id="YEo3tqjkAiHQVEcUZivg-2" value="" style="aspect=fixed;sketch=0;html=1;dashed=0;whitespace=wrap;verticalLabelPosition=bottom;verticalAlign=top;fillColor=#2875E2;strokeColor=#ffffff;points=[[0.005,0.63,0],[0.1,0.2,0],[0.9,0.2,0],[0.5,0,0],[0.995,0.63,0],[0.72,0.99,0],[0.5,1,0],[0.28,0.99,0]];shape=mxgraph.kubernetes.icon2;prIcon=pod" vertex="1" parent="1">
          <mxGeometry x="360" y="310" width="50" height="48" as="geometry" />
        </mxCell>
        <mxCell id="YEo3tqjkAiHQVEcUZivg-3" value="" style="aspect=fixed;sketch=0;html=1;dashed=0;whitespace=wrap;verticalLabelPosition=bottom;verticalAlign=top;fillColor=#2875E2;strokeColor=#ffffff;points=[[0.005,0.63,0],[0.1,0.2,0],[0.9,0.2,0],[0.5,0,0],[0.995,0.63,0],[0.72,0.99,0],[0.5,1,0],[0.28,0.99,0]];shape=mxgraph.kubernetes.icon2;prIcon=pod" vertex="1" parent="1">
          <mxGeometry x="370" y="320" width="50" height="48" as="geometry" />
        </mxCell>
        <mxCell id="YEo3tqjkAiHQVEcUZivg-4" value="" style="aspect=fixed;sketch=0;html=1;dashed=0;whitespace=wrap;verticalLabelPosition=bottom;verticalAlign=top;fillColor=#2875E2;strokeColor=#ffffff;points=[[0.005,0.63,0],[0.1,0.2,0],[0.9,0.2,0],[0.5,0,0],[0.995,0.63,0],[0.72,0.99,0],[0.5,1,0],[0.28,0.99,0]];shape=mxgraph.kubernetes.icon2;prIcon=pod" vertex="1" parent="1">
          <mxGeometry x="380" y="330" width="50" height="48" as="geometry" />
        </mxCell>
        <mxCell id="YEo3tqjkAiHQVEcUZivg-5" value="scheduler" style="text;html=1;align=center;verticalAlign=middle;resizable=0;points=[];autosize=1;strokeColor=none;fillColor=none;" vertex="1" parent="1">
          <mxGeometry x="355" y="280" width="80" height="30" as="geometry" />
        </mxCell>
        <mxCell id="YEo3tqjkAiHQVEcUZivg-9" value="" style="endArrow=classic;html=1;rounded=0;exitX=0.134;exitY=0.933;exitDx=0;exitDy=0;exitPerimeter=0;entryX=0.145;entryY=0;entryDx=0;entryDy=4.35;entryPerimeter=0;" edge="1" parent="1" source="YEo3tqjkAiHQVEcUZivg-4" target="YEo3tqjkAiHQVEcUZivg-17">
          <mxGeometry width="50" height="50" relative="1" as="geometry">
            <mxPoint x="390" y="470" as="sourcePoint" />
            <mxPoint x="384.4000000000001" y="467.22500000000014" as="targetPoint" />
          </mxGeometry>
        </mxCell>
        <mxCell id="YEo3tqjkAiHQVEcUZivg-10" value="1. polls" style="text;html=1;align=center;verticalAlign=middle;resizable=0;points=[];autosize=1;strokeColor=none;fillColor=none;" vertex="1" parent="1">
          <mxGeometry x="325" y="410" width="60" height="30" as="geometry" />
        </mxCell>
        <mxCell id="YEo3tqjkAiHQVEcUZivg-11" value="destination topic" style="verticalLabelPosition=bottom;html=1;verticalAlign=top;align=center;strokeColor=none;fillColor=#00BEF2;shape=mxgraph.azure.queue_generic;pointerEvents=1;" vertex="1" parent="1">
          <mxGeometry x="190" y="448" width="73.33" height="22" as="geometry" />
        </mxCell>
        <mxCell id="YEo3tqjkAiHQVEcUZivg-12" value="" style="endArrow=classic;html=1;rounded=0;exitX=0;exitY=0.833;exitDx=0;exitDy=0;exitPerimeter=0;entryX=0.5;entryY=0;entryDx=0;entryDy=0;entryPerimeter=0;" edge="1" parent="1" source="YEo3tqjkAiHQVEcUZivg-3" target="YEo3tqjkAiHQVEcUZivg-11">
          <mxGeometry width="50" height="50" relative="1" as="geometry">
            <mxPoint x="370" y="470" as="sourcePoint" />
            <mxPoint x="420" y="420" as="targetPoint" />
          </mxGeometry>
        </mxCell>
        <mxCell id="YEo3tqjkAiHQVEcUZivg-13" value="2. publish" style="edgeLabel;html=1;align=center;verticalAlign=middle;resizable=0;points=[];" vertex="1" connectable="0" parent="YEo3tqjkAiHQVEcUZivg-12">
          <mxGeometry x="0.1541" y="-2" relative="1" as="geometry">
            <mxPoint as="offset" />
          </mxGeometry>
        </mxCell>
        <mxCell id="YEo3tqjkAiHQVEcUZivg-15" value="Scheduler System" style="text;html=1;align=center;verticalAlign=middle;resizable=0;points=[];autosize=1;strokeColor=none;fillColor=none;" vertex="1" parent="1">
          <mxGeometry x="325" y="240" width="120" height="30" as="geometry" />
        </mxCell>
        <mxCell id="YEo3tqjkAiHQVEcUZivg-17" value="" style="shape=cylinder3;whiteSpace=wrap;html=1;boundedLbl=1;backgroundOutline=1;size=15;" vertex="1" parent="1">
          <mxGeometry x="350" y="470" width="70" height="60" as="geometry" />
        </mxCell>
        <mxCell id="YEo3tqjkAiHQVEcUZivg-16" value="" style="dashed=0;outlineConnect=0;html=1;align=center;labelPosition=center;verticalLabelPosition=bottom;verticalAlign=top;shape=mxgraph.webicons.mongodb;gradientColor=#DFDEDE" vertex="1" parent="1">
          <mxGeometry x="372.25" y="502.00000000000006" width="27.5" height="24.66" as="geometry" />
        </mxCell>
        <mxCell id="YEo3tqjkAiHQVEcUZivg-18" value="MongoDB" style="text;html=1;align=center;verticalAlign=middle;resizable=0;points=[];autosize=1;strokeColor=none;fillColor=none;" vertex="1" parent="1">
          <mxGeometry x="346" y="530" width="80" height="30" as="geometry" />
        </mxCell>
        <mxCell id="YEo3tqjkAiHQVEcUZivg-19" value="Actor" style="shape=umlActor;verticalLabelPosition=bottom;verticalAlign=top;html=1;outlineConnect=0;" vertex="1" parent="1">
          <mxGeometry x="80" y="304" width="30" height="60" as="geometry" />
        </mxCell>
        <mxCell id="YEo3tqjkAiHQVEcUZivg-22" value="" style="endArrow=classic;html=1;rounded=0;exitX=0.5;exitY=1;exitDx=0;exitDy=0;exitPerimeter=0;entryX=0.741;entryY=0.024;entryDx=0;entryDy=0;entryPerimeter=0;" edge="1" parent="1" source="YEo3tqjkAiHQVEcUZivg-4" target="YEo3tqjkAiHQVEcUZivg-17">
          <mxGeometry width="50" height="50" relative="1" as="geometry">
            <mxPoint x="360" y="470" as="sourcePoint" />
            <mxPoint x="410" y="420" as="targetPoint" />
          </mxGeometry>
        </mxCell>
        <mxCell id="YEo3tqjkAiHQVEcUZivg-23" value="3. ack/nack" style="text;html=1;align=center;verticalAlign=middle;resizable=0;points=[];autosize=1;strokeColor=none;fillColor=none;" vertex="1" parent="1">
          <mxGeometry x="400" y="410" width="80" height="30" as="geometry" />
        </mxCell>
        <mxCell id="YEo3tqjkAiHQVEcUZivg-24" value="" style="endArrow=classic;html=1;rounded=0;entryX=0.368;entryY=0.276;entryDx=0;entryDy=0;entryPerimeter=0;" edge="1" parent="1" source="YEo3tqjkAiHQVEcUZivg-19" target="YEo3tqjkAiHQVEcUZivg-14">
          <mxGeometry width="50" height="50" relative="1" as="geometry">
            <mxPoint x="360" y="470" as="sourcePoint" />
            <mxPoint x="410" y="420" as="targetPoint" />
          </mxGeometry>
        </mxCell>
        <mxCell id="YEo3tqjkAiHQVEcUZivg-25" value="schedule message" style="edgeLabel;html=1;align=center;verticalAlign=middle;resizable=0;points=[];" vertex="1" connectable="0" parent="YEo3tqjkAiHQVEcUZivg-24">
          <mxGeometry x="-0.6426" y="-1" relative="1" as="geometry">
            <mxPoint x="35" y="-1" as="offset" />
          </mxGeometry>
        </mxCell>
      </root>
    </mxGraphModel>
  </diagram>
</mxfile>
